# xmcd
#
# Track frame offsets:
#	150
#	14711
#	28161
#	44456
#	63022
#	77112
#	95310
#	113466
#	125248
#	148174
#	165962
#	177811
#	200112
#	212127
#
# Disc length: 3180 seconds
#
# Revision: 0
# Processed by: cddbd v1.5.1PL2 Copyright (c) Steve Scherf et al.
# Submitted via: EasyCDDAExtractor 8.2.3.1
#
DISCID=c40c6a0e
DTITLE=Aaron Neville - House On A Hill
DYEAR=2004
DGENRE=R&B
TTITLE0=Baby I Am A Want You
TTITLE1=You Don't Know Me Anymore
TTITLE2=Been So Wrong
TTITLE3=Have Faith
TTITLE4=Performance
TTITLE5=Feelings
TTITLE6=Nadie
TTITLE7=She's On My Mind
TTITLE8=All Fall Down
TTITLE9=House On A Hill
TTITLE10=Let's Live
TTITLE11=One Fine Day
TTITLE12=Tell It Like It Is
TTITLE13=Wild Flower
EXTD=
EXTT0=
EXTT1=
EXTT2=
EXTT3=
EXTT4=
EXTT5=
EXTT6=
EXTT7=
EXTT8=
EXTT9=
EXTT10=
EXTT11=
EXTT12=
EXTT13=
PLAYORDER=
